<svg xmlns="http://www.w3.org/2000/svg" xmlns:xlink="http://www.w3.org/1999/xlink" version="1.1" x="0px" y="0px" viewBox="0 0 100 125" enable-background="new 0 0 100 100" xml:space="preserve"><path d="M54.7,37.1c11.3,4.2,20.4,15.5,20.4,24.7c0,14.8-10.4,23-29.2,23s-29.2-8.2-29.2-23c0-7.9,6.7-17.4,15.7-22.5l-0.1-4.5  c-3,1.5-5.8,3.4-8.5,5.6c-7.2,6.2-11.3,14-11.3,21.4C12.5,78.9,25,89,45.9,89s33.4-10.2,33.4-27.2c0-7.5-4.1-15.3-11.3-21.4  c-2.7-2.3-5.6-4.2-8.5-5.6c-0.4,0.3-0.7,0.6-1,0.8C57.8,36,56.6,36.6,54.7,37.1z"/><path d="M36.2,54c-5.5,0.1-6.8,4.7-9.9,4.6c-1.9-0.1-4.3-0.6-5.8-1.2c-0.5,1.6-0.8,3.1-0.8,4.6c0,16.1,14.3,19.5,26.2,19.5  c12,0,26.2-3.4,26.2-19.5c0-0.8-0.1-1.7-0.3-2.6c-9.6-0.6-9.2-5.5-14.3-5.6c-5.2-0.1-6,4.9-10.3,4.9C41.7,58.8,40.6,53.9,36.2,54z"/><path d="M88.7,46.1c0,0-5.9-32.2-7.1-33c-1.1-0.9-4.2-0.2-4.2-0.2l-19.8,8.5c0,0-3.1-3.9-10.3-6.1c-7.2-2.2-22.4-3.8-22.4-3.8  l9.4,13.9l0.1,1.2c2.3-0.2,11.2-0.9,16.9-0.3c5,0.5,10.4,2.2,12.6,3L76.5,23l4.6,16c0,0,3.5,9.2,6.3,9.9  C89.1,49.3,88.7,46.1,88.7,46.1z"/><path d="M51.1,28.7c-1.8-0.2-3.9-0.2-6.1-0.2c-1.4,0-2.9,0.1-4.3,0.1c-2.8,0.1-5.2,0.3-6.2,0.4l0.5,9.2c0,0,5.4-2.6,11.4-2.5  c1.2,0,2.2,0,3.1-0.1c3.7-0.3,5.3-1.2,6.1-1.7c0.3-0.2,1.5-0.9,1.9-1.1c1-0.7,3.6-2,3.6-2C58.6,30.1,55,29.1,51.1,28.7z"/><text x="0" y="115" fill="#000000" font-size="5px" font-weight="bold" font-family="'Helvetica Neue', Helvetica, Arial-Unicode, Arial, Sans-serif">Created by Max Hancock</text><text x="0" y="120" fill="#000000" font-size="5px" font-weight="bold" font-family="'Helvetica Neue', Helvetica, Arial-Unicode, Arial, Sans-serif">from the Noun Project</text></svg>